HIERARCHY
ROOT Hips
{
	OFFSET 0.00000 0.00000 0.00000
	CHANNELS 6 Xposition Yposition Zposition Zrotation Yrotation Xrotation 
	JOINT LHipJoint
	{
		OFFSET 0 0 0
		CHANNELS 3 Zrotation Yrotation Xrotation
		JOINT LeftUpLeg
		{
			OFFSET 1.53139 -1.83434 0.76626
			CHANNELS 3 Zrotation Yrotation Xrotation
			JOINT LeftLeg
			{
				OFFSET 2.56112 -7.03663 0.00000
				CHANNELS 3 Zrotation Yrotation Xrotation
				JOINT LeftFoot
				{
					OFFSET 2.59983 -7.14299 0.00000
					CHANNELS 3 Zrotation Yrotation Xrotation
					JOINT LeftToeBase
					{
						OFFSET 0.13742 -0.37757 2.00054
						CHANNELS 3 Zrotation Yrotation Xrotation
						End Site
						{
							OFFSET 0.00000 -0.00000 1.02897
						}
					}
				}
			}
		}
	}
	JOINT RHipJoint
	{
		OFFSET 0 0 0
		CHANNELS 3 Zrotation Yrotation Xrotation
		JOINT RightUpLeg
		{
			OFFSET -1.40122 -1.83435 0.76627
			CHANNELS 3 Zrotation Yrotation Xrotation
			JOINT RightLeg
			{
				OFFSET -2.54052 -6.98003 0.00000
				CHANNELS 3 Zrotation Yrotation Xrotation
				JOINT RightFoot
				{
					OFFSET -2.63179 -7.23079 0.00000
					CHANNELS 3 Zrotation Yrotation Xrotation
					JOINT RightToeBase
					{
						OFFSET -0.24131 -0.66299 2.03908
						CHANNELS 3 Zrotation Yrotation Xrotation
						End Site
						{
							OFFSET -0.00000 -0.00000 1.07391
						}
					}
				}
			}
		}
	}
	JOINT LowerBack
	{
		OFFSET 0 0 0
		CHANNELS 3 Zrotation Yrotation Xrotation
		JOINT Spine
		{
			OFFSET 0.01174 2.10302 -0.29778
			CHANNELS 3 Zrotation Yrotation Xrotation
			JOINT Spine1
			{
				OFFSET 0.00772 2.13227 -0.01247
				CHANNELS 3 Zrotation Yrotation Xrotation
				JOINT Neck
				{
					OFFSET 0 0 0
					CHANNELS 3 Zrotation Yrotation Xrotation
					JOINT Neck1
					{
						OFFSET -0.09219 1.60848 0.31481
						CHANNELS 3 Zrotation Yrotation Xrotation
						JOINT Head
						{
							OFFSET 0.13974 1.65456 -0.31134
							CHANNELS 3 Zrotation Yrotation Xrotation
							End Site
							{
								OFFSET 0.04742 1.69515 -0.14578
							}
						}
					}
				}
				JOINT LeftShoulder
				{
					OFFSET 0 0 0
					CHANNELS 3 Zrotation Yrotation Xrotation
					JOINT LeftArm
					{
						OFFSET 3.24909 1.02882 -0.23993
						CHANNELS 3 Zrotation Yrotation Xrotation
						JOINT LeftForeArm
						{
							OFFSET 5.32955 -0.00000 -0.00000
							CHANNELS 3 Zrotation Yrotation Xrotation
							JOINT LeftHand
							{
								OFFSET 3.69232 -0.00000 -0.00000
								CHANNELS 3 Zrotation Yrotation Xrotation
								JOINT LeftFingerBase
								{
									OFFSET 0 0 0
									CHANNELS 3 Zrotation Yrotation Xrotation
									JOINT LeftHandIndex1
									{
										OFFSET 0.53660 -0.00000 -0.00000
										CHANNELS 3 Zrotation Yrotation Xrotation
										End Site
										{
											OFFSET 0.43262 -0.00000 -0.00000
										}
									}
								}
								JOINT LThumb
								{
									OFFSET 0 0 0
									CHANNELS 3 Zrotation Yrotation Xrotation
									End Site
									{
										OFFSET 0.43922 -0.00000 0.43922
									}
								}
							}
						}
					}
				}
				JOINT RightShoulder
				{
					OFFSET 0 0 0
					CHANNELS 3 Zrotation Yrotation Xrotation
					JOINT RightArm
					{
						OFFSET -3.21387 0.93002 -0.34594
						CHANNELS 3 Zrotation Yrotation Xrotation
						JOINT RightForeArm
						{
							OFFSET -5.23431 -0.00000 0.00000
							CHANNELS 3 Zrotation Yrotation Xrotation
							JOINT RightHand
							{
								OFFSET -3.55301 -0.00000 -0.00000
								CHANNELS 3 Zrotation Yrotation Xrotation
								JOINT RightFingerBase
								{
									OFFSET 0 0 0
									CHANNELS 3 Zrotation Yrotation Xrotation
									JOINT RightHandIndex1
									{
										OFFSET -0.77252 -0.00000 -0.00000
										CHANNELS 3 Zrotation Yrotation Xrotation
										End Site
										{
											OFFSET -0.62283 -0.00000 -0.00000
										}
									}
								}
								JOINT RThumb
								{
									OFFSET 0 0 0
									CHANNELS 3 Zrotation Yrotation Xrotation
									End Site
									{
										OFFSET -0.63234 -0.00000 0.63234
									}
								}
							}
						}
					}
				}
			}
		}
	}
}
MOTION
Frames: 13
Frame Time: .0083333
2.2797 18.0943 2.6338 1.2992 -62.7190 -2.2738 0.0000 0.0000 0.0000 -14.5525 -0.6151 -11.8216 10.4632 17.6622 61.0256 0.0702 -4.5347 8.5876 0.1276 -2.3028 -6.3432 0.0000 0.0000 0.0000 30.2092 -1.8428 -5.7324 -0.9418 -6.1811 17.3108 -0.2460 3.2159 -8.8124 -1.5647 -7.8935 22.3911 0.1692 1.0819 10.5749 1.0326 1.4897 0.7573 0.7623 0.7311 -5.1643 -13.1350 -7.4099 -17.8598 10.5855 -10.3193 28.1326 4.5865 -4.7165 13.8212 0.0000 -0.0000 0.0000 -85.8829 7.1383 26.3794 20.5359 -31.2826 -5.8071 -0.0000 -0.0000 5.7141 19.9998 25.2050 8.8106 -7.1250 0.0000 -0.0000 -10.5234 56.2746 -2.9325 0.0000 -0.0000 0.0000 90.3460 -2.4353 12.1654 -16.7284 26.4983 -3.9654 0.0000 0.0000 8.1914 -15.6510 8.8143 -2.4582 7.1250 -0.0000 -0.0000 8.0918 -20.8712 4.7246
2.1755 18.0990 2.6974 1.3205 -63.7438 -2.1289 0.0000 0.0000 0.0000 -14.5140 -1.2352 -12.6870 10.4795 17.6708 61.0792 0.0348 -4.4217 7.4777 0.1590 -2.5689 -7.0806 0.0000 0.0000 0.0000 30.1847 -1.5803 -5.3600 -0.9554 -6.2243 17.4365 -0.2556 3.7763 -8.9967 -1.4931 -7.7190 21.8637 0.1032 1.2489 10.3845 1.0162 1.7036 0.7037 0.7538 0.8386 -5.1183 -13.2432 -7.4649 -17.8798 10.7072 -10.4062 28.1148 4.6369 -4.7513 13.8475 -0.0000 0.0000 0.0000 -86.1142 7.3744 25.9726 20.5352 -31.2818 -5.8067 -0.0000 -0.0000 5.2286 20.2404 25.1823 8.9167 -7.1250 0.0000 -0.0000 -10.2604 56.3017 -2.8649 -0.0000 0.0000 0.0000 90.2491 -2.2338 12.7404 -16.9545 26.7977 -4.0668 0.0000 0.0000 7.5556 -15.5851 8.4918 -2.3586 7.1250 -0.0000 -0.0000 8.1475 -21.2053 4.6956
2.0731 18.0898 2.7576 1.2570 -64.7910 -1.9833 0.0000 0.0000 0.0000 -14.3917 -1.7785 -13.3990 10.4541 17.6574 60.9955 -0.0187 -4.8367 6.2135 0.2496 -3.2145 -8.8765 0.0000 0.0000 0.0000 30.2035 -1.2207 -4.8726 -0.9716 -6.2755 17.5858 -0.2648 4.1622 -9.1778 -1.4610 -7.6394 21.6241 0.0692 1.4425 10.2491 0.9669 1.9535 0.7181 0.6884 0.9623 -5.0304 -13.1531 -7.4923 -17.9021 10.8070 -10.4965 28.0082 4.6407 -4.7680 13.8218 0.0000 0.0000 0.0000 -86.2170 7.4562 25.7222 20.4706 -31.2051 -5.7732 -0.0000 -0.0000 4.7747 20.1767 25.0340 8.8385 -7.1250 0.0000 -0.0000 -10.2583 56.1383 -2.8235 0.0000 0.0000 0.0000 90.2006 -2.0915 13.5604 -17.2861 27.2333 -4.2174 0.0000 0.0000 6.2999 -15.5708 7.9723 -2.2133 7.1250 -0.0000 -0.0000 8.1729 -21.7388 4.6107
1.9764 18.0734 2.8223 1.1062 -65.5639 -1.8320 0.0000 0.0000 0.0000 -14.1915 -2.4406 -14.0215 10.3953 17.6262 60.8015 -0.0661 -5.3438 4.9248 0.2450 -3.1851 -8.7945 0.0000 0.0000 0.0000 30.2483 -0.9127 -4.3879 -0.9958 -6.3507 17.8056 -0.2792 4.4302 -9.4387 -1.4084 -7.5065 21.2249 0.1794 1.5323 10.2523 0.9235 2.0831 0.7137 0.5622 1.0232 -5.0329 -13.0674 -7.4924 -17.9317 10.8141 -10.5293 28.0225 4.6222 -4.7726 13.8339 0.0000 0.0000 0.0000 -86.2873 7.5769 25.6475 20.4428 -31.1721 -5.7588 -0.0000 -0.0000 4.2872 20.1256 25.0937 8.8339 -7.1250 0.0000 -0.0000 -10.3395 56.1882 -2.8588 0.0000 0.0000 0.0000 90.1915 -1.8774 13.8652 -17.5158 27.5327 -4.3231 0.0000 0.0000 5.6578 -15.4698 7.8103 -2.1539 7.1250 -0.0000 -0.0000 8.2511 -21.9093 4.6233
1.8795 18.0594 2.8910 0.9988 -66.1935 -1.7903 0.0000 0.0000 0.0000 -14.0398 -3.1778 -14.5471 10.3083 17.5796 60.5140 -0.0834 -5.3424 3.5981 0.1341 -2.3606 -6.5034 0.0000 0.0000 0.0000 30.2488 -0.6629 -3.8750 -1.0248 -6.4396 18.0655 -0.2973 4.7046 -9.7527 -1.3411 -7.3323 20.7037 0.3009 1.5913 10.2939 0.9117 2.1738 0.7476 0.4680 1.0647 -5.0165 -13.1770 -7.4902 -18.0133 10.9616 -10.5331 28.0369 4.7001 -4.7660 13.8766 -0.0000 0.0000 0.0000 -86.4927 7.6718 25.4341 20.4253 -31.1513 -5.7497 -0.0000 -0.0000 4.1799 19.8585 25.4137 8.8107 -7.1250 0.0000 -0.0000 -10.7709 56.4559 -3.0501 -0.0000 0.0000 0.0000 90.0795 -1.6602 14.1735 -17.7500 27.8358 -4.4319 0.0000 0.0000 5.1450 -15.3486 7.9335 -2.1696 7.1250 -0.0000 -0.0000 8.3349 -21.7884 4.6945
1.7848 18.0415 2.9588 0.5485 -66.7855 -1.4380 0.0000 0.0000 0.0000 -13.7367 -3.9306 -15.0651 10.1955 17.5183 60.1397 -0.0839 -5.1486 2.3420 0.0939 -1.9764 -5.4405 0.0000 0.0000 0.0000 30.3865 -0.6226 -3.4458 -1.0511 -6.5193 18.2988 -0.3115 5.0626 -10.0113 -1.1982 -6.9455 19.5540 0.5752 1.6214 10.3718 0.9245 2.2455 0.7668 0.3150 1.0935 -5.0305 -13.2109 -7.4818 -17.9959 11.0076 -10.5198 27.9661 4.7252 -4.7590 13.8459 0.0000 0.0000 0.0000 -86.6784 7.7071 25.1708 20.3408 -31.0508 -5.7061 -0.0000 -0.0000 4.1762 19.8151 25.5681 8.8392 -7.1250 0.0000 -0.0000 -10.8910 56.6024 -3.1234 0.0000 0.0000 0.0000 89.9450 -1.5600 14.6994 -18.0744 28.2523 -4.5844 0.0000 0.0000 4.5157 -15.2554 7.9179 -2.1516 7.1250 -0.0000 -0.0000 8.4028 -21.8084 4.7297
1.6937 18.0122 3.0261 0.1140 -67.3852 -1.0293 0.0000 0.0000 0.0000 -13.4281 -4.7108 -15.6255 10.0423 17.4336 59.6297 -0.0785 -4.9968 1.2165 0.0923 -1.9597 -5.3943 0.0000 0.0000 0.0000 30.5488 -0.8782 -3.3222 -1.0890 -6.6322 18.6301 -0.3324 5.4567 -10.3735 -0.7078 -5.3771 14.9874 0.8483 1.6518 10.4167 0.9116 2.3173 0.7540 0.1363 1.1223 -5.0578 -13.1446 -7.4796 -17.9380 10.9467 -10.5135 27.8651 4.6873 -4.7584 13.7802 -0.0000 0.0000 0.0000 -86.7987 7.7442 25.0257 20.1873 -30.8673 -5.6271 -0.0000 -0.0000 4.3992 20.2971 25.4536 9.0319 -7.1250 0.0000 -0.0000 -10.3286 56.5882 -2.9561 -0.0000 0.0000 0.0000 89.8854 -1.4223 15.0359 -18.3394 28.5896 -4.7105 0.0000 0.0000 4.3456 -15.4581 7.6138 -2.0984 7.1250 -0.0000 -0.0000 8.2660 -22.1113 4.5935
1.6013 17.9779 3.0919 -0.1659 -68.0206 -0.7477 0.0000 0.0000 0.0000 -13.1713 -5.4934 -16.1268 9.8395 17.3186 58.9504 -0.0661 -4.8285 0.0548 0.0643 -1.6366 -4.5023 0.0000 0.0000 0.0000 30.6659 -0.8419 -3.1178 -1.1344 -6.7644 19.0192 -0.3716 5.5603 -10.9435 -0.3579 -3.8433 10.6362 1.0448 1.6961 10.4609 0.8419 2.3959 0.7446 -0.0595 1.1557 -5.0811 -13.0542 -7.4622 -17.9424 10.9730 -10.5183 27.7931 4.6790 -4.7479 13.7468 -0.0000 -0.0000 0.0000 -86.8979 7.8281 24.8060 20.0423 -30.6933 -5.5529 -0.0000 -0.0000 4.8897 21.0171 25.3055 9.3262 -7.1250 0.0000 -0.0000 -9.4988 56.5898 -2.7158 -0.0000 -0.0000 0.0000 89.9534 -1.1966 15.1075 -18.5462 28.8509 -4.8099 0.0000 0.0000 4.5473 -15.5852 7.5165 -2.0896 7.1250 -0.0000 -0.0000 8.1770 -22.2058 4.5252
1.5043 17.9653 3.1555 -0.2189 -68.5627 -0.7029 0.0000 0.0000 0.0000 -13.0559 -6.1871 -16.5339 9.5728 17.1625 58.0508 -0.0428 -4.5642 -1.2330 0.1409 -2.4195 -6.6666 0.0000 0.0000 0.0000 30.6091 -0.1206 -2.5090 -1.1805 -6.8958 19.4070 -0.4101 5.6485 -11.4763 -0.7032 -5.3599 14.9380 1.1376 1.7402 10.5252 0.8094 2.4639 0.7577 -0.1572 1.1864 -5.0975 -13.0658 -7.4736 -17.9809 10.9738 -10.5197 27.7412 4.6783 -4.7479 13.7340 -0.0000 -0.0000 0.0000 -87.0462 7.8514 24.6397 19.9141 -30.5387 -5.4876 -0.0000 -0.0000 5.1283 21.2194 25.0369 9.3311 -7.1250 0.0000 -0.0000 -9.1629 56.3586 -2.5672 -0.0000 -0.0000 0.0000 89.8737 -0.9629 15.1831 -18.7713 29.1336 -4.9190 0.0000 0.0000 4.2872 -15.2038 7.7894 -2.1094 7.1250 -0.0000 -0.0000 8.4446 -21.9421 4.7277
1.4072 17.9582 3.2232 -0.5629 -69.0730 -0.4266 0.0000 0.0000 0.0000 -12.8544 -6.7909 -16.8967 9.2702 16.9785 57.0198 -0.0199 -4.3224 -2.1807 0.2947 -3.4910 -9.6488 0.0000 0.0000 0.0000 30.6348 0.4289 -1.9244 -1.2280 -7.0280 19.7983 -0.4588 5.9298 -12.1370 -1.1688 -6.8627 19.3093 1.2800 1.7268 10.6893 0.8879 2.4705 0.7098 -0.1625 1.1855 -5.2370 -13.1095 -7.4170 -17.9110 10.8643 -10.3904 27.7038 4.6659 -4.7125 13.6778 0.0000 -0.0000 0.0000 -87.2406 7.9845 24.4792 19.8088 -30.4113 -5.4342 -0.0000 -0.0000 5.0227 21.0395 24.6529 9.1153 -7.1250 0.0000 -0.0000 -9.1822 55.9291 -2.4769 0.0000 -0.0000 0.0000 89.6230 -0.8586 15.7492 -18.9741 29.3865 -5.0181 0.0000 0.0000 3.1725 -15.2695 8.0802 -2.1975 7.1250 -0.0000 -0.0000 8.3874 -21.6416 4.7530
1.3114 17.9435 3.2923 -0.9444 -69.5967 -0.0719 0.0000 0.0000 0.0000 -12.6136 -7.4349 -17.2548 8.9376 16.7674 55.8742 0.0002 -4.0984 -2.8779 0.3705 -3.9097 -10.8228 0.0000 0.0000 0.0000 30.6909 0.6039 -1.5779 -1.2717 -7.1474 20.1527 -0.5079 6.2201 -12.7718 -1.2387 -7.0575 19.8859 1.3949 1.7132 10.8452 0.9655 2.4757 0.6185 -0.1537 1.1842 -5.4188 -13.0708 -7.3356 -17.8122 10.7470 -10.2574 27.6845 4.6380 -4.6695 13.6165 0.0000 -0.0000 0.0000 -87.4858 8.0991 24.0834 19.6467 -30.2143 -5.3524 -0.0000 -0.0000 5.2252 20.6982 24.3760 8.8633 -7.1250 0.0000 -0.0000 -9.4184 55.5766 -2.4606 0.0000 -0.0000 0.0000 89.3395 -0.9142 16.8560 -19.2644 29.7458 -5.1614 0.0000 0.0000 1.4980 -16.2471 8.0363 -2.3330 7.1250 -0.0000 -0.0000 7.6816 -21.6422 4.3454
1.2115 17.9293 3.3578 -1.2766 -70.1709 0.3320 0.0000 0.0000 0.0000 -12.3783 -8.0030 -17.6639 8.5753 16.5265 54.6095 0.0249 -3.8084 -3.6436 0.4891 -4.4842 -12.4430 0.0000 0.0000 0.0000 30.7293 0.9193 -1.1575 -1.2917 -7.2013 20.3132 -0.5281 6.5137 -13.0441 -1.2944 -7.2083 20.3340 1.5422 1.7675 10.8134 0.9609 2.5655 0.5943 -0.2541 1.2247 -5.4189 -12.9078 -7.3084 -17.8825 10.6107 -10.2168 27.6923 4.5609 -4.6490 13.6082 0.0000 0.0000 0.0000 -87.6095 8.0430 23.7729 19.4813 -30.0123 -5.2694 -0.0000 -0.0000 5.6443 20.2492 24.3166 8.6376 -7.1250 0.0000 -0.0000 -9.8598 55.4252 -2.5411 0.0000 0.0000 0.0000 89.1202 -0.8898 17.8374 -19.5965 30.1531 -5.3272 0.0000 0.0000 0.3845 -16.9110 7.9529 -2.4088 7.1250 -0.0000 -0.0000 7.2028 -21.6970 4.0611
1.1080 17.9168 3.4219 -1.5806 -70.7914 0.7530 0.0000 0.0000 0.0000 -12.1543 -8.4632 -18.0802 8.1843 16.2531 53.2237 0.0524 -3.4126 -4.4061 0.5194 -4.6191 -12.8252 0.0000 0.0000 0.0000 30.7275 1.0763 -0.7945 -1.3001 -7.2237 20.3797 -0.5266 6.8511 -13.0691 -1.1813 -6.8980 19.4134 1.7101 1.8403 10.6250 0.9237 2.6746 0.6409 -0.3959 1.2759 -5.2535 -12.7995 -7.3105 -18.0339 10.5443 -10.2078 27.6684 4.5131 -4.6356 13.6173 0.0000 0.0000 0.0000 -87.5791 7.9605 23.8878 19.4229 -29.9408 -5.2403 -0.0000 -0.0000 5.7558 19.9868 25.0217 8.7455 -7.1250 0.0000 -0.0000 -10.4514 56.0867 -2.8644 0.0000 0.0000 0.0000 88.9786 -0.6278 18.2788 -19.8107 30.4136 -5.4352 0.0000 0.0000 0.2136 -16.6739 7.8779 -2.3508 7.1250 -0.0000 -0.0000 7.3763 -21.7858 4.1455
